<svg xmlns="http://www.w3.org/2000/svg" width="127.283" height="17.876" viewBox="0 0 127.283 17.876"><defs><style>.a{fill:#0080ed;}</style></defs><g transform="translate(-160.999 -1103.242)"><g transform="translate(160.999 1103.242)"><g transform="translate(104.938 0)"><circle class="a" cx="0.894" cy="0.894" r="0.894" transform="translate(0)"/><circle class="a" cx="0.894" cy="0.894" r="0.894" transform="translate(1.788 16.088)"/><circle class="a" cx="0.894" cy="0.894" r="0.894" transform="translate(4.469)"/><circle class="a" cx="0.894" cy="0.894" r="0.894" transform="translate(4.469 2.681)"/><circle class="a" cx="0.894" cy="0.894" r="0.894" transform="translate(4.469 13.407)"/><circle class="a" cx="0.894" cy="0.894" r="0.894" transform="translate(4.469 16.088)"/><circle class="a" cx="0.894" cy="0.894" r="0.894" transform="translate(7.15)"/><circle class="a" cx="0.894" cy="0.894" r="0.894" transform="translate(7.15 2.681)"/><circle class="a" cx="0.894" cy="0.894" r="0.894" transform="translate(7.15 5.363)"/><circle class="a" cx="0.894" cy="0.894" r="0.894" transform="translate(7.15 10.726)"/><circle class="a" cx="0.894" cy="0.894" r="0.894" transform="translate(7.15 13.407)"/><circle class="a" cx="0.894" cy="0.894" r="0.894" transform="translate(7.15 16.088)"/><circle class="a" cx="0.894" cy="0.894" r="0.894" transform="translate(9.832)"/><circle class="a" cx="0.894" cy="0.894" r="0.894" transform="translate(9.832 2.681)"/><circle class="a" cx="0.894" cy="0.894" r="0.894" transform="translate(9.832 5.363)"/><circle class="a" cx="0.894" cy="0.894" r="0.894" transform="translate(9.832 8.044)"/><circle class="a" cx="0.894" cy="0.894" r="0.894" transform="translate(9.832 10.726)"/><circle class="a" cx="0.894" cy="0.894" r="0.894" transform="translate(9.832 13.407)"/><circle class="a" cx="0.894" cy="0.894" r="0.894" transform="translate(9.832 16.088)"/><circle class="a" cx="0.894" cy="0.894" r="0.894" transform="translate(12.513)"/><circle class="a" cx="0.894" cy="0.894" r="0.894" transform="translate(12.513 2.681)"/><circle class="a" cx="0.894" cy="0.894" r="0.894" transform="translate(12.513 5.363)"/><circle class="a" cx="0.894" cy="0.894" r="0.894" transform="translate(12.513 8.044)"/><circle class="a" cx="0.894" cy="0.894" r="0.894" transform="translate(12.513 10.726)"/><circle class="a" cx="0.894" cy="0.894" r="0.894" transform="translate(12.513 13.407)"/><circle class="a" cx="0.894" cy="0.894" r="0.894" transform="translate(12.513 16.088)"/><circle class="a" cx="0.894" cy="0.894" r="0.894" transform="translate(15.195 2.681)"/><circle class="a" cx="0.894" cy="0.894" r="0.894" transform="translate(15.013 5.592) rotate(-13.282)"/><circle class="a" cx="0.894" cy="0.894" r="0.894" transform="translate(15.195 8.044)"/><circle class="a" cx="0.894" cy="0.894" r="0.894" transform="translate(15.195 10.726)"/><circle class="a" cx="0.894" cy="0.894" r="0.894" transform="translate(15.195 13.407)"/><circle class="a" cx="0.894" cy="0.894" r="0.894" transform="translate(17.876 5.363)"/><circle class="a" cx="0.894" cy="0.894" r="0.894" transform="translate(17.744 8.199) rotate(-9.217)"/><circle class="a" cx="0.894" cy="0.894" r="0.894" transform="matrix(0.973, -0.23, 0.23, 0.973, 17.694, 10.955)"/><circle class="a" cx="0.894" cy="0.894" r="0.894" transform="translate(20.557 8.044)"/></g><g transform="translate(0 13.421)"><circle class="a" cx="2.227" cy="2.227" r="2.227" transform="translate(0 0)"/></g><g transform="translate(8.909 0.041)"><path class="a" d="M2049.965,170.291l-1.058-.156c-2.025-.3-3.7-.643-3.7-1.752s1.33-1.822,3.389-1.822a10.727,10.727,0,0,1,4.784,1.175l.021.01a.7.7,0,0,0,.916-.2c.289-.39.55-.813.8-1.223.126-.205.253-.41.382-.61a.8.8,0,0,0,.147-.63.758.758,0,0,0-.375-.456,14.515,14.515,0,0,0-6.758-1.553,9.915,9.915,0,0,0-5.35,1.384,4.794,4.794,0,0,0-2.33,4.144c0,2.81,1.928,4.449,5.9,5.01l1.191.168c2.47.352,3.808.739,3.808,1.776,0,1.1-1.4,1.834-3.483,1.834a10.668,10.668,0,0,1-5.393-1.47.756.756,0,0,0-1.027.126c-.261.315-1.319,1.8-1.4,1.981a.726.726,0,0,0,.277.933,14.671,14.671,0,0,0,7.533,1.908,10.292,10.292,0,0,0,5.464-1.379,4.918,4.918,0,0,0,2.417-4.293C2056.113,172.54,2054.044,170.891,2049.965,170.291Z" transform="translate(-2040.35 -163.071)"/><path class="a" d="M2278.054,170.291l-1.058-.156c-2.025-.3-3.7-.643-3.7-1.752s1.331-1.822,3.388-1.822a10.727,10.727,0,0,1,4.785,1.175l.021.01a.7.7,0,0,0,.915-.2c.289-.39.55-.813.8-1.222.126-.205.253-.41.383-.611a.8.8,0,0,0,.146-.63.751.751,0,0,0-.375-.456,14.511,14.511,0,0,0-6.758-1.553,9.913,9.913,0,0,0-5.35,1.384,4.794,4.794,0,0,0-2.33,4.144c0,2.81,1.928,4.449,5.9,5.01l1.192.168c2.469.352,3.807.739,3.807,1.776,0,1.1-1.4,1.834-3.483,1.834a10.668,10.668,0,0,1-5.393-1.47.755.755,0,0,0-1.027.126c-.262.315-1.319,1.8-1.4,1.981a.726.726,0,0,0,.278.933,14.671,14.671,0,0,0,7.533,1.908,10.29,10.29,0,0,0,5.464-1.379,4.918,4.918,0,0,0,2.417-4.293C2284.2,172.54,2282.134,170.891,2278.054,170.291Z" transform="translate(-2207.903 -163.071)"/><path class="a" d="M2340.632,176.169a9.28,9.28,0,0,0-2.5-.32,6.9,6.9,0,0,0-7.4,7.134c0,4.484,2.933,7.269,7.653,7.269a9.024,9.024,0,0,0,5.441-1.732.852.852,0,0,0,.291-.584.767.767,0,0,0-.268-.563l-1.242-1.2a.728.728,0,0,0-.6-.208,1.208,1.208,0,0,0-.489.2l-.1.058a6.369,6.369,0,0,1-2.978.761c-2.156,0-3.651-.995-3.941-2.608h9.974a.748.748,0,0,0,.749-.707c.008-.141.018-.554.018-.625a7.828,7.828,0,0,0-1.228-4.561A5.987,5.987,0,0,0,2340.632,176.169Zm1.025,5.224h-7.083a3.558,3.558,0,0,1,3.668-2.363C2340.165,179.029,2341.4,179.888,2341.657,181.393Z" transform="translate(-2253.66 -172.458)"/><path class="a" d="M2111.518,177.5a5.144,5.144,0,0,0-.548.052l-.512.055a6.527,6.527,0,0,1-1.385.025.681.681,0,0,1-.548-.293,1.236,1.236,0,0,1-.128-.639l-.01-6.265h3.047a.763.763,0,0,0,.761-.762v-1.816a.726.726,0,0,0-.016-.154.762.762,0,0,0-.745-.609l-3.02,0c0-1.847,0-2.632,0-2.632a.762.762,0,0,0-.761-.761.792.792,0,0,0-.375.1l-2.364,1.379a.741.741,0,0,0-.352.64l0,11.477a3.411,3.411,0,0,0,3.462,3.82q.42.04.865.04c.342,0,.694-.018,1.053-.053a8.123,8.123,0,0,0,1.773-.31.749.749,0,0,0,.56-.7v-1.826A.763.763,0,0,0,2111.518,177.5Z" transform="translate(-2087.52 -163.536)"/><path class="a" d="M2148.631,176.006h-2.287a.769.769,0,0,0-.768.768v.063a5.936,5.936,0,0,0-3.351-.991h-.087a7.692,7.692,0,0,0-5.169,1.767,7.087,7.087,0,0,0-2.163,5.45,7.262,7.262,0,0,0,2.09,5.363,7.4,7.4,0,0,0,5.083,1.8h.165a6.566,6.566,0,0,0,3.432-1.093v.17a.769.769,0,0,0,.768.768h2.287a.769.769,0,0,0,.769-.768V176.775A.769.769,0,0,0,2148.631,176.006Zm-3.055,6.99v2.331a3.769,3.769,0,1,1,0-4.663Z" transform="translate(-2109.737 -172.455)"/><g transform="translate(41.448 0.168)"><path class="a" d="M2213.922,177.5a5.133,5.133,0,0,0-.548.052l-.512.055a6.527,6.527,0,0,1-1.385.025.682.682,0,0,1-.548-.293,1.239,1.239,0,0,1-.129-.639l-.01-6.265h3.046a.763.763,0,0,0,.762-.762v-1.816a.766.766,0,0,0-.761-.762l-3.019,0v-2.632a.762.762,0,0,0-.761-.761.792.792,0,0,0-.375.1l-2.364,1.379a.741.741,0,0,0-.352.64v1.266l-2.381.007a5.364,5.364,0,0,0-3.692,1.238,4.065,4.065,0,0,0-.553.6v-1.08a.769.769,0,0,0-.768-.768h-2.288a.769.769,0,0,0-.768.768v12.527a.769.769,0,0,0,.768.768h2.288a.769.769,0,0,0,.768-.768v-3.013q0-.64,0-1.28c0-.853,0-1.707,0-2.56a2.954,2.954,0,0,1,.3-1.35c.824-1.595,3.033-1.767,3.944-1.767l2.382,0,0,6.884a3.41,3.41,0,0,0,3.462,3.82q.419.04.865.04.513,0,1.053-.053a8.125,8.125,0,0,0,1.773-.31.75.75,0,0,0,.56-.7v-1.826A.763.763,0,0,0,2213.922,177.5Z" transform="translate(-2196.517 -163.704)"/><path class="a" d="M2235.889,171.682v0h0Z" transform="translate(-2225.44 -169.564)"/></g></g></g></g></svg>